<svg width="974" height="656" viewBox="0 0 974 656" fill="none" xmlns="http://www.w3.org/2000/svg">
<rect width="974" height="656" fill="#E5E5E5"/>
<g id="undraw_nature_fun_n9lv (1) 1" clip-path="url(#clip0)">
<path id="Vector" d="M307.638 442.615L227.09 363.249L207.115 343.566L147.495 284.822L73.589 363.718L0 442.285" fill="#F2F2F2"/>
<path id="Vector_2" d="M704.31 443.094H159.71L227.09 370.054L351.58 224.034L359.97 214.194L472.58 82.104L550.5 205.514L552.54 208.744L651.67 365.724L704.31 443.094Z" fill="#F2F2F2"/>
<path id="Vector_3" d="M974 442.615L839.483 283.895L773.539 206.09L709.804 286.003L651.67 358.918L585.18 442.285" fill="#F2F2F2"/>
<path id="Vector_4" opacity="0.1" d="M207.115 343.566L171.622 367.363L129.717 350.855L73.589 363.718L147.495 284.822L207.115 343.566Z" fill="black"/>
<path id="Vector_5" opacity="0.1" d="M550.5 205.514L538.61 226.404L511.95 198.474L482.74 226.404L466.23 194.664L439.56 226.404L431.94 206.094L414.17 226.404L382.42 206.094L359.97 214.194L472.58 82.104L550.5 205.514Z" fill="black"/>
<path id="Vector_6" opacity="0.1" d="M839.483 283.895L806.555 324.187L779.888 292.441L739.253 325.457L709.804 286.003L773.539 206.09L839.483 283.895Z" fill="black"/>
<path id="Vector_7" d="M839.889 444.153L838.111 443.235C861.193 398.611 848.851 340.66 834.433 299.903C824.642 272.509 812.155 246.154 797.155 221.228L798.845 220.16C813.923 245.213 826.476 271.701 836.317 299.235C850.868 340.365 863.298 398.894 839.889 444.153Z" fill="#2F2E41"/>
<path id="Vector_8" d="M857.007 220.517L844.033 291.522L846 291.881L858.974 220.877L857.007 220.517Z" fill="#2F2E41"/>
<path id="Vector_9" d="M770.732 281.013L769.268 282.376L836.267 354.376L837.732 353.013L770.732 281.013Z" fill="#2F2E41"/>
<path id="Vector_10" d="M891.182 360.102L857.197 407.114L858.818 408.286L892.803 361.274L891.182 360.102Z" fill="#2F2E41"/>
<path id="Vector_11" d="M863 201.694C868.523 201.694 873 197.217 873 191.694C873 186.171 868.523 181.694 863 181.694C857.477 181.694 853 186.171 853 191.694C853 197.217 857.477 201.694 863 201.694Z" fill="#6C63FF"/>
<path id="Vector_12" d="M754 278.694C759.523 278.694 764 274.217 764 268.694C764 263.171 759.523 258.694 754 258.694C748.477 258.694 744 263.171 744 268.694C744 274.217 748.477 278.694 754 278.694Z" fill="#3F3D56"/>
<path id="Vector_13" d="M798 288.694C803.523 288.694 808 284.217 808 278.694C808 273.171 803.523 268.694 798 268.694C792.477 268.694 788 273.171 788 278.694C788 284.217 792.477 288.694 798 288.694Z" fill="#3F3D56"/>
<path id="Vector_14" d="M778 327.694C783.523 327.694 788 323.217 788 317.694C788 312.171 783.523 307.694 778 307.694C772.477 307.694 768 312.171 768 317.694C768 323.217 772.477 327.694 778 327.694Z" fill="#6C63FF"/>
<path id="Vector_15" d="M903 352.694C908.523 352.694 913 348.217 913 342.694C913 337.171 908.523 332.694 903 332.694C897.477 332.694 893 337.171 893 342.694C893 348.217 897.477 352.694 903 352.694Z" fill="#3F3D56"/>
<path id="Vector_16" d="M870 363.694C875.523 363.694 880 359.217 880 353.694C880 348.171 875.523 343.694 870 343.694C864.477 343.694 860 348.171 860 353.694C860 359.217 864.477 363.694 870 363.694Z" fill="#3F3D56"/>
<path id="Vector_17" d="M893 395.694C898.523 395.694 903 391.217 903 385.694C903 380.171 898.523 375.694 893 375.694C887.477 375.694 883 380.171 883 385.694C883 391.217 887.477 395.694 893 395.694Z" fill="#3F3D56"/>
<path id="Vector_18" d="M788 213.694C793.523 213.694 798 209.217 798 203.694C798 198.171 793.523 193.694 788 193.694C782.477 193.694 778 198.171 778 203.694C778 209.217 782.477 213.694 788 213.694Z" fill="#3F3D56"/>
<path id="Vector_19" d="M590.889 442.153L589.111 441.235C612.193 396.611 599.851 338.66 585.433 297.903C575.642 270.509 563.155 244.154 548.155 219.228L549.845 218.16C564.923 243.213 577.476 269.701 587.317 297.235C601.868 338.365 614.298 396.894 590.889 442.153Z" fill="#2F2E41"/>
<path id="Vector_20" d="M608.006 218.516L595.032 289.521L596.999 289.88L609.973 218.876L608.006 218.516Z" fill="#2F2E41"/>
<path id="Vector_21" d="M521.732 279.013L520.268 280.375L587.267 352.376L588.732 351.013L521.732 279.013Z" fill="#2F2E41"/>
<path id="Vector_22" d="M642.182 358.103L608.197 405.114L609.818 406.286L643.803 359.274L642.182 358.103Z" fill="#2F2E41"/>
<path id="Vector_23" d="M614 199.694C619.523 199.694 624 195.217 624 189.694C624 184.171 619.523 179.694 614 179.694C608.477 179.694 604 184.171 604 189.694C604 195.217 608.477 199.694 614 199.694Z" fill="#3F3D56"/>
<path id="Vector_24" d="M505 276.694C510.523 276.694 515 272.217 515 266.694C515 261.171 510.523 256.694 505 256.694C499.477 256.694 495 261.171 495 266.694C495 272.217 499.477 276.694 505 276.694Z" fill="#3F3D56"/>
<path id="Vector_25" d="M549 286.694C554.523 286.694 559 282.217 559 276.694C559 271.171 554.523 266.694 549 266.694C543.477 266.694 539 271.171 539 276.694C539 282.217 543.477 286.694 549 286.694Z" fill="#3F3D56"/>
<path id="Vector_26" d="M529 325.694C534.523 325.694 539 321.217 539 315.694C539 310.171 534.523 305.694 529 305.694C523.477 305.694 519 310.171 519 315.694C519 321.217 523.477 325.694 529 325.694Z" fill="#3F3D56"/>
<path id="Vector_27" d="M654 350.694C659.523 350.694 664 346.217 664 340.694C664 335.171 659.523 330.694 654 330.694C648.477 330.694 644 335.171 644 340.694C644 346.217 648.477 350.694 654 350.694Z" fill="#6C63FF"/>
<path id="Vector_28" d="M621 361.694C626.523 361.694 631 357.217 631 351.694C631 346.171 626.523 341.694 621 341.694C615.477 341.694 611 346.171 611 351.694C611 357.217 615.477 361.694 621 361.694Z" fill="#3F3D56"/>
<path id="Vector_29" d="M644 393.694C649.523 393.694 654 389.217 654 383.694C654 378.171 649.523 373.694 644 373.694C638.477 373.694 634 378.171 634 383.694C634 389.217 638.477 393.694 644 393.694Z" fill="#3F3D56"/>
<path id="Vector_30" d="M539 211.694C544.523 211.694 549 207.217 549 201.694C549 196.171 544.523 191.694 539 191.694C533.477 191.694 529 196.171 529 201.694C529 207.217 533.477 211.694 539 211.694Z" fill="#3F3D56"/>
<path id="Vector_31" d="M173.111 442.153L174.889 441.235C151.807 396.611 164.149 338.66 178.567 297.903C188.358 270.509 200.845 244.154 215.845 219.228L214.155 218.16C199.077 243.213 186.524 269.701 176.683 297.235C162.132 338.365 149.702 396.894 173.111 442.153Z" fill="#2F2E41"/>
<path id="Vector_32" d="M155.996 218.512L154.03 218.871L167.004 289.876L168.97 289.517L155.996 218.512Z" fill="#2F2E41"/>
<path id="Vector_33" d="M242.268 279.013L175.268 351.013L176.733 352.376L243.732 280.375L242.268 279.013Z" fill="#2F2E41"/>
<path id="Vector_34" d="M121.818 358.102L120.197 359.274L154.182 406.286L155.803 405.114L121.818 358.102Z" fill="#2F2E41"/>
<path id="Vector_35" d="M150 199.694C155.523 199.694 160 195.217 160 189.694C160 184.171 155.523 179.694 150 179.694C144.477 179.694 140 184.171 140 189.694C140 195.217 144.477 199.694 150 199.694Z" fill="#3F3D56"/>
<path id="Vector_36" d="M259 276.694C264.523 276.694 269 272.217 269 266.694C269 261.171 264.523 256.694 259 256.694C253.477 256.694 249 261.171 249 266.694C249 272.217 253.477 276.694 259 276.694Z" fill="#3F3D56"/>
<path id="Vector_37" d="M215 286.694C220.523 286.694 225 282.217 225 276.694C225 271.171 220.523 266.694 215 266.694C209.477 266.694 205 271.171 205 276.694C205 282.217 209.477 286.694 215 286.694Z" fill="#3F3D56"/>
<path id="Vector_38" d="M235 325.694C240.523 325.694 245 321.217 245 315.694C245 310.171 240.523 305.694 235 305.694C229.477 305.694 225 310.171 225 315.694C225 321.217 229.477 325.694 235 325.694Z" fill="#3F3D56"/>
<path id="Vector_39" d="M110 350.694C115.523 350.694 120 346.217 120 340.694C120 335.171 115.523 330.694 110 330.694C104.477 330.694 100 335.171 100 340.694C100 346.217 104.477 350.694 110 350.694Z" fill="#3F3D56"/>
<path id="Vector_40" d="M143 361.694C148.523 361.694 153 357.217 153 351.694C153 346.171 148.523 341.694 143 341.694C137.477 341.694 133 346.171 133 351.694C133 357.217 137.477 361.694 143 361.694Z" fill="#3F3D56"/>
<path id="Vector_41" d="M120 393.694C125.523 393.694 130 389.217 130 383.694C130 378.171 125.523 373.694 120 373.694C114.477 373.694 110 378.171 110 383.694C110 389.217 114.477 393.694 120 393.694Z" fill="#6C63FF"/>
<path id="Vector_42" d="M225 211.694C230.523 211.694 235 207.217 235 201.694C235 196.171 230.523 191.694 225 191.694C219.477 191.694 215 196.171 215 201.694C215 207.217 219.477 211.694 225 211.694Z" fill="#3F3D56"/>
<path id="Vector_43" d="M974 441.694H0V443.694H974V441.694Z" fill="#2F2E41"/>
<g id="girl">
<path id="Vector_44" d="M430.929 433.01C437.575 433.01 442.963 427.623 442.963 420.977C442.963 414.331 437.575 408.943 430.929 408.943C424.283 408.943 418.896 414.331 418.896 420.977C418.896 427.623 424.283 433.01 430.929 433.01Z" fill="#2F2E41"/>
<path id="Vector_45" d="M424.431 430.122C424.431 430.122 424.672 434.454 421.784 434.936L425.875 444.803L430.929 452.986H435.261L437.909 450.58L437.427 447.451L435.983 441.915L434.299 440.231C434.299 440.231 434.539 433.251 436.705 430.122C438.872 426.994 424.431 430.122 424.431 430.122Z" fill="#FFB8B8"/>
<path id="Vector_46" opacity="0.1" d="M424.431 430.122C424.431 430.122 424.672 434.454 421.784 434.936L425.875 444.803L430.929 452.986H435.261L437.909 450.58L437.427 447.451L435.983 441.915L434.299 440.231C434.299 440.231 434.539 433.251 436.705 430.122C438.872 426.994 424.431 430.122 424.431 430.122Z" fill="black"/>
<path id="Vector_47" d="M434.299 415.2C437.489 415.2 440.075 412.614 440.075 409.424C440.075 406.234 437.489 403.648 434.299 403.648C431.109 403.648 428.523 406.234 428.523 409.424C428.523 412.614 431.109 415.2 434.299 415.2Z" fill="#2F2E41"/>
<path id="Vector_48" d="M428.763 407.018C428.763 406.259 428.913 405.508 429.203 404.807C429.493 404.106 429.919 403.47 430.455 402.933C430.991 402.397 431.628 401.971 432.329 401.681C433.03 401.391 433.781 401.241 434.539 401.241C434.615 401.241 434.691 401.244 434.766 401.247C433.981 401.01 433.154 400.942 432.341 401.049C431.528 401.157 430.746 401.436 430.049 401.868C429.352 402.301 428.755 402.877 428.298 403.558C427.841 404.239 427.535 405.01 427.399 405.819C427.263 406.628 427.301 407.457 427.51 408.25C427.72 409.043 428.096 409.783 428.613 410.419C429.131 411.056 429.778 411.575 430.512 411.942C431.245 412.309 432.049 412.515 432.868 412.547C431.681 412.188 430.641 411.457 429.902 410.461C429.163 409.465 428.763 408.258 428.763 407.018Z" fill="#2F2E41"/>
<path id="Vector_49" d="M422.987 435.176L420.58 434.936C419.911 434.742 419.202 434.729 418.525 434.898C417.849 435.068 417.229 435.413 416.729 435.898C415.045 437.583 416.97 456.596 416.97 456.596L422.987 452.505L423.95 442.878L422.987 435.176Z" fill="#FFB8B8"/>
<path id="Vector_50" d="M411.194 509.786L407.825 528.799C407.825 528.799 405.658 536.741 403.011 539.148C400.364 541.555 396.272 561.531 395.309 565.863C394.347 570.195 394.106 572.602 392.903 574.286C391.699 575.971 392.903 581.988 392.903 581.988H395.55L399.401 581.266C399.401 581.266 400.123 572.12 400.845 570.436C401.567 568.751 413.36 543.48 413.36 543.48C413.36 543.48 421.302 531.687 422.746 525.189C423.838 520.839 425.626 516.694 428.041 512.914L411.194 509.786Z" fill="#FFB8B8"/>
<path id="Vector_51" d="M435.502 508.823L438.631 530.724C438.631 530.724 438.631 537.463 439.594 540.111C440.556 542.758 441.278 558.402 442.241 562.012C443.204 565.622 445.37 573.564 444.648 574.527C443.803 576.074 443.079 577.683 442.482 579.34L444.888 584.635L451.387 580.063L450.424 540.592C450.424 540.592 453.071 507.138 451.387 506.175C449.702 505.213 441.278 502.325 435.502 508.823Z" fill="#FFB8B8"/>
<path id="Vector_52" d="M416.97 485.237L412.157 498.474C412.157 498.474 408.547 512.433 410.472 513.155C412.397 513.877 434.299 517.006 434.78 514.358C435.001 513.326 435.162 512.281 435.261 511.23C435.261 511.23 454.034 511.952 454.275 507.619C454.285 501.75 453.964 495.884 453.312 490.05C453.079 489.06 452.53 488.173 451.749 487.522C450.968 486.87 449.996 486.491 448.98 486.44C446.332 486.44 423.468 480.423 416.97 485.237Z" fill="#2F2E41"/>
<path id="Vector_53" d="M393.384 579.1C393.61 578.752 393.964 578.507 394.369 578.417C394.774 578.327 395.198 578.399 395.55 578.618C396.994 579.34 399.882 579.1 399.882 579.1L399.16 585.598C399.16 585.598 402.048 597.15 396.754 597.15C391.459 597.15 388.571 593.3 389.052 591.856C389.533 590.411 390.737 579.1 390.737 579.1C390.737 579.1 393.049 573.418 393.143 573.083C393.238 572.748 393.384 579.1 393.384 579.1Z" fill="#2F2E41"/>
<path id="Vector_54" d="M443.685 577.896C443.685 577.896 443.204 580.544 445.37 580.303C447.536 580.063 451.146 577.896 451.387 578.137C452.005 579.343 452.412 580.645 452.59 581.988C452.831 583.673 453.312 587.283 455.478 588.967C457.644 590.652 461.014 595.947 457.163 596.188C453.312 596.428 446.332 596.188 446.092 593.781C445.851 591.374 445.851 588.727 445.851 588.727C445.851 588.727 443.685 588.967 442.963 588.486C442.241 588.005 437.428 585.117 438.872 581.266C440.316 577.415 444.39 574.934 444.39 574.934L443.685 577.896Z" fill="#2F2E41"/>
<path id="Vector_55" d="M429.967 433.732C435.15 433.732 439.353 429.53 439.353 424.346C439.353 419.162 435.15 414.96 429.967 414.96C424.783 414.96 420.58 419.162 420.58 424.346C420.58 429.53 424.783 433.732 429.967 433.732Z" fill="#FFB8B8"/>
<path id="Vector_56" d="M435.021 441.915C435.021 441.915 439.353 441.915 440.316 444.322C441.278 446.729 439.353 451.783 439.353 451.783L437.158 446.419L435.021 441.915Z" fill="#FFB8B8"/>
<path id="Vector_57" d="M419.377 434.695H422.265C422.265 434.695 429.726 445.766 430.929 446.729C432.133 447.692 436.465 447.932 436.465 447.21C436.465 446.488 434.299 440.231 434.299 440.231L436.224 441.675L439.353 449.376C439.353 449.376 447.776 470.556 447.054 472.722C446.934 472.989 446.87 473.278 446.866 473.571C446.862 473.865 446.919 474.155 447.031 474.426C447.144 474.697 447.311 474.941 447.522 475.145C447.733 475.348 447.983 475.507 448.258 475.61C448.498 475.85 451.146 481.386 449.943 483.552C448.739 485.718 451.146 488.365 451.146 488.365C451.146 488.365 452.349 493.66 448.258 494.382C444.166 495.104 442 491.254 437.187 493.179C432.373 495.104 425.875 495.345 424.431 492.457C423.399 490.272 422.514 488.021 421.784 485.718C421.784 485.718 419.136 490.291 420.34 493.901C421.543 497.511 419.858 493.66 418.655 493.66C417.452 493.66 415.285 493.42 415.285 491.976C415.285 490.532 410.472 466.223 410.472 466.223L417.211 450.82C417.211 450.82 423.468 447.932 422.746 444.563C422.024 441.193 422.987 436.38 419.377 434.695Z" fill="#3F3D56"/>
<path id="Vector_58" d="M421.24 434.72C420.644 434.182 419.906 433.826 419.113 433.694C418.321 433.562 417.507 433.659 416.768 433.974C415.316 434.597 414.025 435.544 412.995 436.743C411.965 437.942 411.223 439.361 410.826 440.891C408.66 447.871 404.088 466.403 405.05 470.975C406.013 475.548 413.955 496.006 413.955 496.006C414.179 497.866 414.501 499.714 414.918 501.541C415.159 501.782 418.769 492.877 418.769 492.877L412.511 469.05L420.935 443.298C420.935 443.298 424.362 437.644 421.24 434.72Z" fill="#FFB8B8"/>
<path id="Vector_59" d="M431.886 420.915C437.003 420.915 441.151 418.221 441.151 414.898C441.151 411.575 437.003 408.881 431.886 408.881C426.768 408.881 422.62 411.575 422.62 414.898C422.62 418.221 426.768 420.915 431.886 420.915Z" fill="#2F2E41"/>
</g>
<g id="boy">
<path id="Vector_60" d="M224.894 447.867C224.894 447.867 208.773 456.548 208.153 463.988C207.533 471.428 198.233 490.029 198.233 490.029C198.233 490.029 161.651 479.488 161.031 478.868C160.411 478.248 157.931 490.029 157.931 490.029L170.952 491.889L195.133 500.569C195.133 500.569 200.713 508.63 210.013 497.469C219.314 486.309 242.875 462.128 242.875 462.128L224.894 447.867Z" fill="#2F2E41"/>
<path id="Vector_61" d="M221.794 478.248C221.794 478.248 242.255 498.089 241.635 502.429C241.015 506.77 231.714 542.111 231.714 542.111L239.155 545.831L244.115 542.731L254.035 499.949C254.035 499.949 257.77 494.71 250.632 488.649C243.495 482.589 238.535 461.508 238.535 461.508L221.794 478.248Z" fill="#2F2E41"/>
<path id="Vector_62" d="M279.766 438.877C285.588 438.877 290.307 434.158 290.307 428.336C290.307 422.515 285.588 417.796 279.766 417.796C273.945 417.796 269.226 422.515 269.226 428.336C269.226 434.158 273.945 438.877 279.766 438.877Z" fill="#A0616A"/>
<path id="Vector_63" d="M272.636 426.786C272.636 426.786 262.096 421.826 260.856 423.066C259.615 424.306 263.336 439.187 263.336 439.187C263.336 439.187 273.256 433.607 274.496 433.607C275.736 433.607 272.636 426.786 272.636 426.786Z" fill="#A0616A"/>
<path id="Vector_64" d="M266.436 433.607C266.436 433.607 263.336 421.206 262.096 421.206C260.856 421.206 249.075 423.066 241.635 431.747C234.194 440.427 226.134 445.387 223.654 447.247C221.174 449.107 219.314 450.967 223.654 452.827C227.994 454.687 232.954 459.648 234.815 462.748C236.675 465.848 249.075 462.128 249.075 462.128C249.075 462.128 254.655 451.587 256.515 451.587C258.375 451.587 268.296 437.327 266.436 433.607Z" fill="#6C63FF"/>
<path id="Vector_65" d="M247.835 447.247C247.835 447.247 239.155 459.028 239.155 467.708C239.155 476.388 244.115 490.649 244.115 490.649C244.115 490.649 248.455 511.73 252.175 504.289C255.895 496.849 249.695 486.929 249.695 486.929L247.215 464.608L252.175 452.827L247.835 447.247Z" fill="#A0616A"/>
<path id="Vector_66" d="M162.984 479.584C162.984 479.584 156.071 474.528 155.451 476.388C154.831 478.248 145.531 499.329 148.631 500.569C151.731 501.809 161.031 489.409 161.651 489.409C162.271 489.409 161.217 479.059 162.984 479.584Z" fill="#2F2E41"/>
<path id="Vector_67" d="M242.875 539.011C242.875 539.011 252.175 543.971 254.035 543.971C255.895 543.971 259.615 546.451 255.275 547.691C250.935 548.931 231.714 550.791 231.094 548.931C230.474 547.071 231.094 542.111 231.094 542.111C231.094 542.111 242.875 540.871 242.875 539.011Z" fill="#2F2E41"/>
<path id="Vector_68" d="M291.991 428.146C292.275 427.383 292.377 426.565 292.288 425.755C292.23 423.974 292.107 422.026 290.896 420.718C290.276 420.049 289.404 419.596 288.967 418.795C288.737 418.233 288.55 417.655 288.407 417.066C288.1 416.362 287.628 415.741 287.032 415.256C286.436 414.772 285.732 414.436 284.981 414.278C283.475 413.976 281.931 413.92 280.408 414.111C278.223 414.154 276.057 414.535 273.989 415.241C272.956 415.602 272.02 416.195 271.252 416.975C270.484 417.754 269.905 418.698 269.558 419.736C269.375 420.546 269.288 421.374 269.299 422.204L269.208 425.656C269.554 425.961 269.986 426.151 270.444 426.2C270.902 426.249 271.364 426.155 271.767 425.931C272.607 425.558 273.319 424.931 274.173 424.588C274.584 424.38 275.052 424.312 275.505 424.394C275.958 424.476 276.372 424.704 276.684 425.043C276.852 425.349 276.998 425.666 277.121 425.993C278.823 429.381 283.396 425.775 285.771 425.827C287.896 425.873 290.434 431.486 291.991 428.146Z" fill="#2F2E41"/>
<path id="Vector_69" d="M258.269 550.835C273.72 550.835 276.209 545.079 276.312 544.821L275.163 544.354C275.138 544.412 272.492 550.145 255.918 549.552C239.829 548.977 214.935 549.473 211.609 549.543C210.676 547.965 206.495 541.561 200.591 542.743L200.835 543.959C206.507 542.821 210.666 550.389 210.708 550.466L210.888 550.799L211.267 550.791C211.54 550.785 238.73 550.18 255.873 550.791C256.704 550.82 257.503 550.835 258.269 550.835Z" fill="#2F2E41"/>
<path id="Vector_70" d="M258.193 556.992H258.558C259.827 556.992 260.855 555.963 260.855 554.694V554.329C260.855 553.06 259.827 552.031 258.558 552.031H258.193C256.924 552.031 255.895 553.06 255.895 554.329V554.694C255.895 555.963 256.924 556.992 258.193 556.992Z" fill="#2F2E41"/>
<path id="Vector_71" d="M215.411 556.992H215.776C217.045 556.992 218.074 555.963 218.074 554.694V554.329C218.074 553.06 217.045 552.031 215.776 552.031H215.411C214.142 552.031 213.114 553.06 213.114 554.329V554.694C213.114 555.963 214.142 556.992 215.411 556.992Z" fill="#2F2E41"/>
<path id="Vector_72" d="M264.576 432.367C264.576 432.367 261.628 447.292 258.452 450.06C255.275 452.827 254.528 455.508 252.422 456.338C250.315 457.168 242.875 448.487 242.875 447.867C242.875 447.247 264.576 432.367 264.576 432.367Z" fill="#6C63FF"/>
</g>
<path id="Vector_73" d="M327 552.694H171V554.694H327V552.694Z" fill="#2F2E41"/>
<path id="Vector_74" d="M513 594.694H357V596.694H513V594.694Z" fill="#2F2E41"/>
<path id="Vector_75" d="M640 653.694H576V655.694H640V653.694Z" fill="#2F2E41"/>
<path id="Vector_76" d="M241 636.694H177V638.694H241V636.694Z" fill="#2F2E41"/>
<path id="Vector_77" d="M807.583 495.694H532.417V497.694H807.583V495.694Z" fill="#2F2E41"/>
<path id="Vector_78" d="M830 622.694H679V624.694H830V622.694Z" fill="#2F2E41"/>
<path id="Vector_79" d="M705.123 583.719C705.124 585.736 704.362 587.679 702.99 589.158C701.618 590.638 699.738 591.543 697.726 591.694H697.72C696.919 590.614 696.493 589.302 696.508 587.957C696.523 586.612 696.979 585.31 697.804 584.248C698.63 583.187 699.78 582.425 701.08 582.079C702.379 581.734 703.756 581.823 705 582.334V582.34C705.081 582.795 705.123 583.257 705.123 583.719Z" fill="#F2F2F2"/>
<g id="dog">
<path id="Vector_80" d="M800.441 561C800.441 565.971 793.014 565.285 791.441 570C785.938 586.494 782.39 567.549 782.441 561C782.441 558.613 783.389 556.324 785.077 554.636C786.765 552.948 789.054 552 791.441 552C793.828 552 796.117 552.948 797.805 554.636C799.493 556.324 800.441 558.613 800.441 561H800.441Z" fill="#2F2E41"/>
<path id="Vector_81" d="M788.898 585.966C788.898 585.966 788.791 597.299 787.315 598.037C785.839 598.775 777.458 600.358 778.934 602.942C779.71 604.218 780.939 605.155 782.376 605.566C783.812 605.976 785.351 605.83 786.684 605.156C789.267 603.68 795.541 594.823 795.541 594.823L788.898 585.966Z" fill="#3F3D56"/>
<path id="Vector_82" d="M820.266 595.93C820.266 595.93 820.266 596.039 820.277 596.232C820.368 597.528 820.767 598.785 821.44 599.897C822.114 601.009 823.042 601.945 824.148 602.627C825.254 603.31 826.507 603.719 827.803 603.822C829.098 603.925 830.4 603.718 831.6 603.219C832.677 602.796 833.61 602.731 833.444 603.894C833.075 606.477 833.182 609.953 835.027 609.953C836.872 609.953 839.456 605.525 837.979 600.727C836.806 597.333 835.193 594.108 833.182 591.133L820.266 595.93Z" fill="#3F3D56"/>
<path id="Vector_83" opacity="0.1" d="M788.898 585.966C788.898 585.966 788.791 597.299 787.315 598.037C785.839 598.775 777.458 600.358 778.934 602.942C779.71 604.218 780.939 605.155 782.376 605.566C783.812 605.976 785.351 605.83 786.684 605.156C789.267 603.68 795.541 594.823 795.541 594.823L788.898 585.966Z" fill="black"/>
<path id="Vector_84" opacity="0.1" d="M820.266 595.93C820.266 595.93 820.266 596.039 820.277 596.232C820.368 597.528 820.767 598.785 821.44 599.897C822.114 601.009 823.042 601.945 824.148 602.627C825.254 603.31 826.507 603.719 827.803 603.822C829.098 603.925 830.4 603.718 831.6 603.219C832.677 602.796 833.61 602.731 833.444 603.894C833.075 606.477 833.182 609.953 835.027 609.953C836.872 609.953 839.456 605.525 837.979 600.727C836.806 597.333 835.193 594.108 833.182 591.133L820.266 595.93Z" fill="black"/>
<path id="Vector_85" d="M780.836 562.701C781.62 560.975 782.787 559.45 784.249 558.243C785.641 557.079 787.297 556.273 789.072 555.895C790.847 555.517 792.688 555.579 794.434 556.074C802.921 558.289 804.028 564.562 804.028 564.562V567.094C804.013 568.309 804.362 569.5 805.03 570.514C805.699 571.528 806.657 572.317 807.78 572.781C809.658 573.515 840.596 572.48 842.441 570.635C843.773 569.148 844.881 567.476 845.729 565.669V565.741C845.759 569.122 844.878 572.448 843.178 575.37C842.435 576.418 842.037 577.67 842.039 578.954C842.408 581.538 843.515 588.549 841.301 591.133C839.087 593.716 840.194 595.561 842.777 595.93C845.36 596.299 849.789 595.561 849.42 599.989C849.051 604.418 849.789 606.263 847.943 606.263C846.098 606.263 845.286 605.694 843.441 601.635C843.441 601.635 842.039 600.727 836.872 602.204C833.514 603.163 829.102 604.072 827.811 601.465C824.957 595.699 806.599 596.836 802.419 602.607C801.307 604.252 799.948 605.715 798.388 606.944C797.66 607.516 796.857 607.985 796.002 608.339C793.788 609.123 791.112 609.4 789.267 607.37C785.577 603.311 795.441 602.635 795.441 602.635C795.441 602.635 797.017 598.882 796.279 596.299C796.279 596.299 787.422 594.454 787.053 583.014C787.053 583.014 775.244 583.014 773.399 577.109L771.554 571.205L775.103 569.075C777.6 567.577 779.592 565.367 780.823 562.728L780.836 562.701Z" fill="#3F3D56"/>
<path id="Vector_86" d="M771.721 573.711C772.671 573.711 773.441 572.719 773.441 571.496C773.441 570.274 772.671 569.282 771.721 569.282C770.77 569.282 770 570.274 770 571.496C770 572.719 770.77 573.711 771.721 573.711Z" fill="#2F2E41"/>
<path id="Vector_87" d="M808.441 565.001C808.441 570.726 800.189 569.936 798.441 575.367C792.327 594.365 788.385 572.544 788.441 565.001C788.441 562.252 789.495 559.615 791.37 557.671C793.246 555.727 795.789 554.635 798.441 554.635C801.093 554.635 803.637 555.727 805.512 557.671C807.388 559.615 808.441 562.252 808.441 565.001V565.001Z" fill="#2F2E41"/>
</g>
</g>
<defs>
<clipPath id="clip0">
<rect width="974" height="655.694" fill="white"/>
</clipPath>
</defs>
</svg>
